<svg width="876" height="618" viewBox="0 0 876 618" fill="none" xmlns="http://www.w3.org/2000/svg">
<path d="M632 1.51776C562.133 11.6511 502.133 42.3177 452.533 93.1177C394.4 152.718 364 226.851 364 309.251V328.051L357.733 321.918C348.4 312.984 336.4 304.718 323.867 298.451C311.867 292.584 295.467 287.518 288.4 287.518C282.667 287.518 281.733 285.384 286.267 282.984C297.6 277.118 311.2 260.584 320 241.918C330 220.584 333.733 198.584 331.867 172.451C328.267 125.251 299.067 79.6511 255.333 53.3844C236.667 42.1844 208.4 32.8511 184.667 30.1844C177.733 29.3844 135.867 28.8511 86.4 28.8511H0V114.318V199.651L20 220.851C84.2667 288.718 151.333 342.051 207.867 370.318C248.667 390.584 277.733 398.584 311.333 398.451C352.933 398.451 386.4 383.918 417.067 352.451C423.067 346.318 428 341.918 428.133 342.718C428.133 343.518 428.933 342.718 429.733 340.851C430.667 338.984 432.4 335.918 433.867 334.184C436.267 330.851 436.267 330.851 435.467 340.184C434.4 352.051 430.533 370.451 426 384.584C404.133 453.518 350.8 509.118 267.6 549.918C208.933 578.718 133.867 600.851 52 613.384C39.8667 615.251 28.5333 616.984 26.6667 617.251C24.8 617.518 72.8 617.918 133.333 617.918C248.133 618.184 254.133 617.918 275.733 612.318C330.267 598.051 371.867 561.918 393.467 509.918C398.133 498.851 405.333 471.918 405.333 465.918C405.333 463.784 405.867 462.184 406.533 462.451C407.2 462.584 411.2 467.918 415.333 474.184C445.067 518.184 487.6 555.918 533.067 578.718C572.933 598.718 609.067 608.584 653.867 611.651C721.467 616.184 783.867 597.251 838.533 555.518C851.2 545.918 874.667 525.118 875.6 522.718C876.133 521.251 835.867 462.718 813.467 432.584L808.933 426.318L797.733 436.318C763.2 467.118 729.467 484.851 694 491.118C676.4 494.184 647.867 492.851 629.333 488.184C565.733 472.318 512.267 422.184 492.267 359.518C486.4 341.251 484.667 329.251 484.8 306.184C484.8 287.251 485.333 282.051 488.4 269.251C506.933 189.651 574.133 129.384 654 120.851C701.467 115.651 753.2 134.851 798 174.051C803.867 179.118 809.067 182.984 809.467 182.451C813.333 178.051 876 91.251 876 90.3177C876 89.6511 871.333 84.9844 865.733 79.9177C818.267 37.5177 769.867 13.1177 712.667 2.71771C696.133 -0.215576 648.933 -1.01562 632 1.51776Z" fill="url(#paint0_linear_4_20)"/>
<path d="M429.333 346.451C410 389.384 374.533 428.184 331.2 453.651C284.267 481.251 224.4 497.784 150.667 503.518C129.6 505.118 64.5333 505.118 42.6667 503.518C33.4667 502.851 20.1333 501.918 13.0667 501.384L0 500.451V522.584C0 538.318 0.4 544.984 1.6 545.651C4.8 547.651 96.9333 546.584 123.2 544.318C295.867 529.118 397.467 465.118 431.333 350.318C433.333 343.518 434.667 337.784 434.4 337.384C434 337.118 431.867 341.251 429.333 346.451Z" fill="url(#paint1_linear_4_20)"/>
<path d="M421.733 350.451C408.267 368.184 384.933 388.451 363.2 401.118C316 428.851 250.667 436.318 176 422.718C132.4 414.718 77.4667 396.718 25.3333 373.251C13.2 367.784 2.53333 362.984 1.6 362.584C0.4 362.051 0 368.718 0 393.251V424.584L12.4 428.718C79.3333 450.584 133.067 460.584 190.267 461.784C225.733 462.584 242.933 461.384 268.8 456.184C334.133 442.984 383.6 410.318 421.333 355.118C429.467 343.251 429.733 339.918 421.733 350.451Z" fill="url(#paint2_linear_4_20)"/>
<defs>
<linearGradient id="paint0_linear_4_20" x1="885" y1="3.49999" x2="-7.99998" y2="629.5" gradientUnits="userSpaceOnUse">
<stop stop-color="#FF7F50"/>
<stop offset="1" stop-color="#FFB347"/>
</linearGradient>
<linearGradient id="paint1_linear_4_20" x1="438.897" y1="338.558" x2="117.227" y2="668.693" gradientUnits="userSpaceOnUse">
<stop stop-color="#FF7F50"/>
<stop offset="1" stop-color="#FFB347"/>
</linearGradient>
<linearGradient id="paint2_linear_4_20" x1="431.979" y1="344.788" x2="277.831" y2="621.279" gradientUnits="userSpaceOnUse">
<stop stop-color="#FF7F50"/>
<stop offset="1" stop-color="#FFB347"/>
</linearGradient>
</defs>
</svg>
