<svg width="19" height="19" viewBox="0 0 19 19" fill="none" xmlns="http://www.w3.org/2000/svg">
<path d="M9.50002 0.25C4.39399 0.25 0.25 4.394 0.25 9.5C0.25 14.606 4.39399 18.75 9.50002 18.75C14.606 18.75 18.75 14.606 18.75 9.5C18.75 4.394 14.6153 0.25 9.50002 0.25ZM12.275 11.5627L9.59243 13.1075C9.25943 13.3017 8.88952 13.3942 8.52868 13.3942C8.15878 13.3942 7.79793 13.3017 7.46498 13.1075C6.79898 12.719 6.40123 12.0345 6.40123 11.2575V8.15875C6.40123 7.391 6.79898 6.69725 7.46498 6.30875C8.13103 5.92025 8.92643 5.92025 9.60168 6.30875L12.2842 7.8535C12.9502 8.242 13.8529 8.9265 13.8529 9.7035C13.8529 10.4805 12.9502 11.1742 12.275 11.5627Z" fill="white"/>
</svg>
