<?xml version="1.0" standalone="no"?>
<!DOCTYPE svg PUBLIC "-//W3C//DTD SVG 20010904//EN"
 "http://www.w3.org/TR/2001/REC-SVG-20010904/DTD/svg10.dtd">
<svg version="1.0" xmlns="http://www.w3.org/2000/svg"
 width="512.000000pt" height="512.000000pt" viewBox="0 0 512.000000 512.000000"
 preserveAspectRatio="xMidYMid meet">

<g transform="translate(0.000000,512.000000) scale(0.100000,-0.100000)"
fill="#000000" stroke="none">
<path d="M4170 4894 c-649 -48 -1162 -190 -1588 -442 -356 -211 -665 -487
-969 -865 -74 -92 -143 -172 -153 -177 -11 -6 -79 -30 -152 -54 -256 -85 -395
-158 -560 -295 -109 -90 -203 -195 -288 -323 -73 -108 -109 -184 -155 -322
-51 -151 -74 -278 -82 -443 l-6 -143 499 0 c567 0 568 0 724 -77 137 -68 275
-206 343 -343 77 -156 77 -157 77 -724 l0 -499 143 6 c395 18 729 160 992 422
194 193 296 368 397 683 48 148 44 143 248 302 159 124 479 438 598 588 223
280 390 587 502 922 104 311 181 787 183 1135 1 138 -1 156 -26 231 -85 253
-300 411 -572 419 -55 1 -125 1 -155 -1z m243 -410 c46 -23 76 -53 99 -99 20
-37 21 -51 15 -220 -27 -799 -279 -1425 -781 -1943 -321 -330 -690 -599 -1183
-861 -198 -106 -227 -115 -283 -86 -35 18 -50 45 -80 145 -101 342 -421 657
-765 755 -83 24 -112 41 -130 75 -29 56 -20 86 81 275 261 491 536 870 855
1180 222 215 434 367 684 489 295 145 551 223 890 271 261 37 545 46 598 19z"/>
<path d="M3211 3655 c-212 -47 -354 -264 -307 -468 20 -86 47 -138 102 -197
86 -92 224 -141 343 -120 176 30 301 149 336 319 24 112 0 215 -72 313 -90
124 -254 186 -402 153z"/>
<path d="M704 1181 c-188 -54 -271 -177 -364 -536 -32 -123 -92 -416 -87 -421
6 -7 343 66 470 100 153 43 260 86 332 135 204 137 231 442 56 618 -56 56
-110 85 -196 108 -75 19 -134 18 -211 -4z"/>
</g>
</svg>
